<mxfile host="app.diagrams.net" modified="2023-12-24T17:59:40.410Z" agent="Mozilla/5.0 (Windows NT 10.0; Win64; x64) AppleWebKit/537.36 (KHTML, like Gecko) Chrome/118.0.0.0 YaBrowser/23.11.0.0 Safari/537.36" etag="-G6oJMGF8UEjGGz1X7_Y" version="22.1.11" type="device">
  <diagram name="Страница — 1" id="jGiX2baK9UznTOppfsZ1">
    <mxGraphModel dx="880" dy="479" grid="1" gridSize="10" guides="1" tooltips="1" connect="1" arrows="1" fold="1" page="1" pageScale="1" pageWidth="827" pageHeight="1169" math="0" shadow="0">
      <root>
        <mxCell id="0" />
        <mxCell id="1" parent="0" />
        <mxCell id="d9ZxMhoozpsZAnbKxT84-6" value="" style="edgeStyle=orthogonalEdgeStyle;rounded=0;orthogonalLoop=1;jettySize=auto;html=1;" edge="1" parent="1" source="d9ZxMhoozpsZAnbKxT84-2" target="d9ZxMhoozpsZAnbKxT84-4">
          <mxGeometry relative="1" as="geometry" />
        </mxCell>
        <mxCell id="d9ZxMhoozpsZAnbKxT84-2" value="STATR" style="rounded=1;whiteSpace=wrap;html=1;" vertex="1" parent="1">
          <mxGeometry x="350" y="10" width="120" height="60" as="geometry" />
        </mxCell>
        <mxCell id="d9ZxMhoozpsZAnbKxT84-8" value="" style="edgeStyle=orthogonalEdgeStyle;rounded=0;orthogonalLoop=1;jettySize=auto;html=1;" edge="1" parent="1" source="d9ZxMhoozpsZAnbKxT84-4" target="d9ZxMhoozpsZAnbKxT84-7">
          <mxGeometry relative="1" as="geometry" />
        </mxCell>
        <mxCell id="d9ZxMhoozpsZAnbKxT84-4" value="First Array []&amp;nbsp;&lt;br&gt;Second Array []&lt;br&gt;int count = 0" style="rounded=0;whiteSpace=wrap;html=1;" vertex="1" parent="1">
          <mxGeometry x="350" y="120" width="120" height="60" as="geometry" />
        </mxCell>
        <mxCell id="d9ZxMhoozpsZAnbKxT84-10" value="" style="edgeStyle=orthogonalEdgeStyle;rounded=0;orthogonalLoop=1;jettySize=auto;html=1;" edge="1" parent="1" source="d9ZxMhoozpsZAnbKxT84-7" target="d9ZxMhoozpsZAnbKxT84-9">
          <mxGeometry relative="1" as="geometry" />
        </mxCell>
        <mxCell id="d9ZxMhoozpsZAnbKxT84-7" value="Keyboard input" style="shape=parallelogram;perimeter=parallelogramPerimeter;whiteSpace=wrap;html=1;fixedSize=1;" vertex="1" parent="1">
          <mxGeometry x="350" y="230" width="120" height="60" as="geometry" />
        </mxCell>
        <mxCell id="d9ZxMhoozpsZAnbKxT84-18" value="" style="edgeStyle=orthogonalEdgeStyle;rounded=0;orthogonalLoop=1;jettySize=auto;html=1;" edge="1" parent="1" source="d9ZxMhoozpsZAnbKxT84-9" target="d9ZxMhoozpsZAnbKxT84-11">
          <mxGeometry relative="1" as="geometry" />
        </mxCell>
        <mxCell id="d9ZxMhoozpsZAnbKxT84-21" value="" style="edgeStyle=orthogonalEdgeStyle;rounded=0;orthogonalLoop=1;jettySize=auto;html=1;" edge="1" parent="1" source="d9ZxMhoozpsZAnbKxT84-9">
          <mxGeometry relative="1" as="geometry">
            <mxPoint x="530" y="370" as="targetPoint" />
          </mxGeometry>
        </mxCell>
        <mxCell id="d9ZxMhoozpsZAnbKxT84-9" value="Firs Array&lt;br&gt;i &amp;lt; array,length" style="rhombus;whiteSpace=wrap;html=1;" vertex="1" parent="1">
          <mxGeometry x="345" y="330" width="130" height="80" as="geometry" />
        </mxCell>
        <mxCell id="d9ZxMhoozpsZAnbKxT84-12" style="edgeStyle=orthogonalEdgeStyle;rounded=0;orthogonalLoop=1;jettySize=auto;html=1;" edge="1" parent="1" source="d9ZxMhoozpsZAnbKxT84-11">
          <mxGeometry relative="1" as="geometry">
            <mxPoint x="340" y="370" as="targetPoint" />
            <Array as="points">
              <mxPoint x="231" y="470" />
            </Array>
          </mxGeometry>
        </mxCell>
        <mxCell id="d9ZxMhoozpsZAnbKxT84-11" value="int i = 0; i++" style="rounded=0;whiteSpace=wrap;html=1;" vertex="1" parent="1">
          <mxGeometry x="350" y="440" width="120" height="60" as="geometry" />
        </mxCell>
        <mxCell id="d9ZxMhoozpsZAnbKxT84-24" value="" style="edgeStyle=orthogonalEdgeStyle;rounded=0;orthogonalLoop=1;jettySize=auto;html=1;" edge="1" parent="1" source="d9ZxMhoozpsZAnbKxT84-22" target="d9ZxMhoozpsZAnbKxT84-23">
          <mxGeometry relative="1" as="geometry" />
        </mxCell>
        <mxCell id="d9ZxMhoozpsZAnbKxT84-22" value="ModArray" style="shape=parallelogram;perimeter=parallelogramPerimeter;whiteSpace=wrap;html=1;fixedSize=1;" vertex="1" parent="1">
          <mxGeometry x="520" y="340" width="120" height="60" as="geometry" />
        </mxCell>
        <mxCell id="d9ZxMhoozpsZAnbKxT84-27" value="" style="edgeStyle=orthogonalEdgeStyle;rounded=0;orthogonalLoop=1;jettySize=auto;html=1;" edge="1" parent="1" source="d9ZxMhoozpsZAnbKxT84-23" target="d9ZxMhoozpsZAnbKxT84-25">
          <mxGeometry relative="1" as="geometry" />
        </mxCell>
        <mxCell id="d9ZxMhoozpsZAnbKxT84-29" value="" style="edgeStyle=orthogonalEdgeStyle;rounded=0;orthogonalLoop=1;jettySize=auto;html=1;" edge="1" parent="1" source="d9ZxMhoozpsZAnbKxT84-23" target="d9ZxMhoozpsZAnbKxT84-28">
          <mxGeometry relative="1" as="geometry" />
        </mxCell>
        <mxCell id="d9ZxMhoozpsZAnbKxT84-23" value="Second Array&lt;br&gt;i &amp;lt; array.length&lt;br&gt;Second Array[count]" style="rhombus;whiteSpace=wrap;html=1;" vertex="1" parent="1">
          <mxGeometry x="502.5" y="465" width="155" height="120" as="geometry" />
        </mxCell>
        <mxCell id="d9ZxMhoozpsZAnbKxT84-26" style="edgeStyle=orthogonalEdgeStyle;rounded=0;orthogonalLoop=1;jettySize=auto;html=1;entryX=0;entryY=0.5;entryDx=0;entryDy=0;" edge="1" parent="1" source="d9ZxMhoozpsZAnbKxT84-25" target="d9ZxMhoozpsZAnbKxT84-23">
          <mxGeometry relative="1" as="geometry">
            <mxPoint x="440" y="520" as="targetPoint" />
            <Array as="points">
              <mxPoint x="441" y="650" />
              <mxPoint x="441" y="525" />
            </Array>
          </mxGeometry>
        </mxCell>
        <mxCell id="d9ZxMhoozpsZAnbKxT84-25" value="count++" style="rounded=0;whiteSpace=wrap;html=1;" vertex="1" parent="1">
          <mxGeometry x="520" y="620" width="120" height="60" as="geometry" />
        </mxCell>
        <mxCell id="d9ZxMhoozpsZAnbKxT84-31" value="" style="edgeStyle=orthogonalEdgeStyle;rounded=0;orthogonalLoop=1;jettySize=auto;html=1;" edge="1" parent="1" source="d9ZxMhoozpsZAnbKxT84-28" target="d9ZxMhoozpsZAnbKxT84-30">
          <mxGeometry relative="1" as="geometry" />
        </mxCell>
        <mxCell id="d9ZxMhoozpsZAnbKxT84-28" value="Print to console" style="shape=document;whiteSpace=wrap;html=1;boundedLbl=1;" vertex="1" parent="1">
          <mxGeometry x="700" y="485" width="120" height="80" as="geometry" />
        </mxCell>
        <mxCell id="d9ZxMhoozpsZAnbKxT84-30" value="END" style="rounded=1;whiteSpace=wrap;html=1;" vertex="1" parent="1">
          <mxGeometry x="700" y="600" width="120" height="60" as="geometry" />
        </mxCell>
      </root>
    </mxGraphModel>
  </diagram>
</mxfile>
